<svg xmlns="http://www.w3.org/2000/svg" width="360" height="360" viewBox="0 0 360 360">
  <defs>
    <style>
      .cls-1 {
        fill-rule: evenodd;
      }

      .cls-2 {
        fill: none;
        stroke: #000;
        stroke-width: 5px;
      }
    </style>
    <g id="logo">
      <path class="cls-1" d="M106.352,139.719c13.472-22.131,12.441-30.279,83.6-28.467-3.857-4.636-41.373-9.466-50.6-6.081,37.826-48.09,8.567-75.035,59.675-69.857-8.9-2.675-7.356-8.908-18.672-4.811,25.317-30.657,84.657-.418,95.478,6.338,10.612,11.867,1.949,17.245,8.717,34.426C259.7,41,254.359,62.184,235.161,55.062c6.566,8.813,3.547,20.646,3.3,26.072-31.927-1.269-44.329-8.216-44.88-.258,103.608,12.13,56.058,44.287,65.173,72.021C216.086,137.5,150.616,128.349,106.352,139.719ZM53.909,202.742c-55.368-72.3,116.992-61.468,135.272-58.2,31.991,0.108,205.742,44.862,107.934,90C236.459,250.046,233.13,233,239,218c8.478-39.13-34.077-53.265-48.775-55.364C184.991,162.007,93.079,156.467,101,210,79.556,215.786,61.579,210.96,53.909,202.742Z"/>
      <path id="Q" class="cls-1" d="M157.407,285.449q-9.647-4.91-12.219-16.809-2.253-8.788-2.251-28.964,0-8.272.322-18.878,0.965-21.462,4.34-27.153t14.309-5.689q18.969,0,28.939,17.326,8.358,14.74,8.36,37.5a101.589,101.589,0,0,1-.643,11.379q-0.965,8.279-1.607,11.12-4.183-3.1-11.9-3.1a12.128,12.128,0,0,0-2.893.259,26.48,26.48,0,0,0-13.023,5.172q-5.306,4.14-6.592,8.534a7.989,7.989,0,0,0-.643,3.1,10.3,10.3,0,0,0,2.573,6.724,13.374,13.374,0,0,0,4.18,3.879,35.645,35.645,0,0,1-11.254-4.4h0Zm23.472-121.543q-9.646,0-35.37,9.309-9.97,3.626-15.273,5.69a47.094,47.094,0,0,0-10.611,5.947q-5.306,3.879-7.235,6.983a34.863,34.863,0,0,0-3.537,9.7,60.291,60.291,0,0,0-1.768,12.8q-0.166,6.207-.161,18.1a147.86,147.86,0,0,1-3.055,31.679q-3.059,13.838-6.27,15.645-3.542,1.813-3.537,4.655,0,4.915,11.576,12.155,6.751,3.624,15.434,7.758,10.287,4.4,14.63,6.335t11.254,4.267q6.912,2.328,9.486,3.1a28.61,28.61,0,0,0,7.717.775,5.5,5.5,0,0,0,1.929.259,19.584,19.584,0,0,0,7.074-1.034q2.245-.777,7.074-2.974a63.559,63.559,0,0,0,8.2-4.4q3.376-2.2,6.27-4.525,0.965,1.812.964,8.275a38.438,38.438,0,0,1-1.607,10.344,39.56,39.56,0,0,0-.965,7.758q0,7.5,6.753,7.5h0.321q8.358-.261,16.4-13.189,2.246-4.14,4.5-9.31a27.711,27.711,0,0,0,1.607-9.568,41.645,41.645,0,0,0-5.144-19.395,45.155,45.155,0,0,0,10.932-19.4q3.21-11.377,3.537-33.1v-6.724q0-21.976-3.537-32.325-4.823-12.153-19.936-21.981a143.438,143.438,0,0,0-14.791-8.405,28.43,28.43,0,0,0-12.219-2.715h-0.643Z"/>
      <rect class="cls-2" x="10" y="9" width="341" height="341"/>
    </g>
    <g id="logo-no-border">
      <path class="cls-1" d="M106.352,139.719c13.472-22.131,12.441-30.279,83.6-28.467-3.857-4.636-41.373-9.466-50.6-6.081,37.826-48.09,8.567-75.035,59.675-69.857-8.9-2.675-7.356-8.908-18.672-4.811,25.317-30.657,84.657-.418,95.478,6.338,10.612,11.867,1.949,17.245,8.717,34.426C259.7,41,254.359,62.184,235.161,55.062c6.566,8.813,3.547,20.646,3.3,26.072-31.927-1.269-44.329-8.216-44.88-.258,103.608,12.13,56.058,44.287,65.173,72.021C216.086,137.5,150.616,128.349,106.352,139.719ZM53.909,202.742c-55.368-72.3,116.992-61.468,135.272-58.2,31.991,0.108,205.742,44.862,107.934,90C236.459,250.046,233.13,233,239,218c8.478-39.13-34.077-53.265-48.775-55.364C184.991,162.007,93.079,156.467,101,210,79.556,215.786,61.579,210.96,53.909,202.742Z"/>
      <path id="Q" class="cls-1" d="M157.407,285.449q-9.647-4.91-12.219-16.809-2.253-8.788-2.251-28.964,0-8.272.322-18.878,0.965-21.462,4.34-27.153t14.309-5.689q18.969,0,28.939,17.326,8.358,14.74,8.36,37.5a101.589,101.589,0,0,1-.643,11.379q-0.965,8.279-1.607,11.12-4.183-3.1-11.9-3.1a12.128,12.128,0,0,0-2.893.259,26.48,26.48,0,0,0-13.023,5.172q-5.306,4.14-6.592,8.534a7.989,7.989,0,0,0-.643,3.1,10.3,10.3,0,0,0,2.573,6.724,13.374,13.374,0,0,0,4.18,3.879,35.645,35.645,0,0,1-11.254-4.4h0Zm23.472-121.543q-9.646,0-35.37,9.309-9.97,3.626-15.273,5.69a47.094,47.094,0,0,0-10.611,5.947q-5.306,3.879-7.235,6.983a34.863,34.863,0,0,0-3.537,9.7,60.291,60.291,0,0,0-1.768,12.8q-0.166,6.207-.161,18.1a147.86,147.86,0,0,1-3.055,31.679q-3.059,13.838-6.27,15.645-3.542,1.813-3.537,4.655,0,4.915,11.576,12.155,6.751,3.624,15.434,7.758,10.287,4.4,14.63,6.335t11.254,4.267q6.912,2.328,9.486,3.1a28.61,28.61,0,0,0,7.717.775,5.5,5.5,0,0,0,1.929.259,19.584,19.584,0,0,0,7.074-1.034q2.245-.777,7.074-2.974a63.559,63.559,0,0,0,8.2-4.4q3.376-2.2,6.27-4.525,0.965,1.812.964,8.275a38.438,38.438,0,0,1-1.607,10.344,39.56,39.56,0,0,0-.965,7.758q0,7.5,6.753,7.5h0.321q8.358-.261,16.4-13.189,2.246-4.14,4.5-9.31a27.711,27.711,0,0,0,1.607-9.568,41.645,41.645,0,0,0-5.144-19.395,45.155,45.155,0,0,0,10.932-19.4q3.21-11.377,3.537-33.1v-6.724q0-21.976-3.537-32.325-4.823-12.153-19.936-21.981a143.438,143.438,0,0,0-14.791-8.405,28.43,28.43,0,0,0-12.219-2.715h-0.643Z"/>
    </g>
  </defs>
</svg>
