<svg id="icons-svg"><defs>
  <style>
    .cls-1 {
      fill-rule: evenodd;
    }

    .cls-2 {
      fill: none;
      stroke: #000;
      stroke-width: 5px;
    }
  </style> 
  <g id="logo">
    <path class="cls-1" d="M106.352,139.719c13.472-22.131,12.441-30.279,83.6-28.467-3.857-4.636-41.373-9.466-50.6-6.081,37.826-48.09,8.567-75.035,59.675-69.857-8.9-2.675-7.356-8.908-18.672-4.811,25.317-30.657,84.657-.418,95.478,6.338,10.612,11.867,1.949,17.245,8.717,34.426C259.7,41,254.359,62.184,235.161,55.062c6.566,8.813,3.547,20.646,3.3,26.072-31.927-1.269-44.329-8.216-44.88-.258,103.608,12.13,56.058,44.287,65.173,72.021C216.086,137.5,150.616,128.349,106.352,139.719ZM53.909,202.742c-55.368-72.3,116.992-61.468,135.272-58.2,31.991,0.108,205.742,44.862,107.934,90C236.459,250.046,233.13,233,239,218c8.478-39.13-34.077-53.265-48.775-55.364C184.991,162.007,93.079,156.467,101,210,79.556,215.786,61.579,210.96,53.909,202.742Z"/>
    <path id="Q" class="cls-1" d="M157.407,285.449q-9.647-4.91-12.219-16.809-2.253-8.788-2.251-28.964,0-8.272.322-18.878,0.965-21.462,4.34-27.153t14.309-5.689q18.969,0,28.939,17.326,8.358,14.74,8.36,37.5a101.589,101.589,0,0,1-.643,11.379q-0.965,8.279-1.607,11.12-4.183-3.1-11.9-3.1a12.128,12.128,0,0,0-2.893.259,26.48,26.48,0,0,0-13.023,5.172q-5.306,4.14-6.592,8.534a7.989,7.989,0,0,0-.643,3.1,10.3,10.3,0,0,0,2.573,6.724,13.374,13.374,0,0,0,4.18,3.879,35.645,35.645,0,0,1-11.254-4.4h0Zm23.472-121.543q-9.646,0-35.37,9.309-9.97,3.626-15.273,5.69a47.094,47.094,0,0,0-10.611,5.947q-5.306,3.879-7.235,6.983a34.863,34.863,0,0,0-3.537,9.7,60.291,60.291,0,0,0-1.768,12.8q-0.166,6.207-.161,18.1a147.86,147.86,0,0,1-3.055,31.679q-3.059,13.838-6.27,15.645-3.542,1.813-3.537,4.655,0,4.915,11.576,12.155,6.751,3.624,15.434,7.758,10.287,4.4,14.63,6.335t11.254,4.267q6.912,2.328,9.486,3.1a28.61,28.61,0,0,0,7.717.775,5.5,5.5,0,0,0,1.929.259,19.584,19.584,0,0,0,7.074-1.034q2.245-.777,7.074-2.974a63.559,63.559,0,0,0,8.2-4.4q3.376-2.2,6.27-4.525,0.965,1.812.964,8.275a38.438,38.438,0,0,1-1.607,10.344,39.56,39.56,0,0,0-.965,7.758q0,7.5,6.753,7.5h0.321q8.358-.261,16.4-13.189,2.246-4.14,4.5-9.31a27.711,27.711,0,0,0,1.607-9.568,41.645,41.645,0,0,0-5.144-19.395,45.155,45.155,0,0,0,10.932-19.4q3.21-11.377,3.537-33.1v-6.724q0-21.976-3.537-32.325-4.823-12.153-19.936-21.981a143.438,143.438,0,0,0-14.791-8.405,28.43,28.43,0,0,0-12.219-2.715h-0.643Z"/>
    <rect class="cls-2" x="10" y="9" width="341" height="341"/>
  </g>
  <g id="logo-no-border">
    <path class="cls-1" d="M106.352,139.719c13.472-22.131,12.441-30.279,83.6-28.467-3.857-4.636-41.373-9.466-50.6-6.081,37.826-48.09,8.567-75.035,59.675-69.857-8.9-2.675-7.356-8.908-18.672-4.811,25.317-30.657,84.657-.418,95.478,6.338,10.612,11.867,1.949,17.245,8.717,34.426C259.7,41,254.359,62.184,235.161,55.062c6.566,8.813,3.547,20.646,3.3,26.072-31.927-1.269-44.329-8.216-44.88-.258,103.608,12.13,56.058,44.287,65.173,72.021C216.086,137.5,150.616,128.349,106.352,139.719ZM53.909,202.742c-55.368-72.3,116.992-61.468,135.272-58.2,31.991,0.108,205.742,44.862,107.934,90C236.459,250.046,233.13,233,239,218c8.478-39.13-34.077-53.265-48.775-55.364C184.991,162.007,93.079,156.467,101,210,79.556,215.786,61.579,210.96,53.909,202.742Z"/>
    <path id="Q" class="cls-1" d="M157.407,285.449q-9.647-4.91-12.219-16.809-2.253-8.788-2.251-28.964,0-8.272.322-18.878,0.965-21.462,4.34-27.153t14.309-5.689q18.969,0,28.939,17.326,8.358,14.74,8.36,37.5a101.589,101.589,0,0,1-.643,11.379q-0.965,8.279-1.607,11.12-4.183-3.1-11.9-3.1a12.128,12.128,0,0,0-2.893.259,26.48,26.48,0,0,0-13.023,5.172q-5.306,4.14-6.592,8.534a7.989,7.989,0,0,0-.643,3.1,10.3,10.3,0,0,0,2.573,6.724,13.374,13.374,0,0,0,4.18,3.879,35.645,35.645,0,0,1-11.254-4.4h0Zm23.472-121.543q-9.646,0-35.37,9.309-9.97,3.626-15.273,5.69a47.094,47.094,0,0,0-10.611,5.947q-5.306,3.879-7.235,6.983a34.863,34.863,0,0,0-3.537,9.7,60.291,60.291,0,0,0-1.768,12.8q-0.166,6.207-.161,18.1a147.86,147.86,0,0,1-3.055,31.679q-3.059,13.838-6.27,15.645-3.542,1.813-3.537,4.655,0,4.915,11.576,12.155,6.751,3.624,15.434,7.758,10.287,4.4,14.63,6.335t11.254,4.267q6.912,2.328,9.486,3.1a28.61,28.61,0,0,0,7.717.775,5.5,5.5,0,0,0,1.929.259,19.584,19.584,0,0,0,7.074-1.034q2.245-.777,7.074-2.974a63.559,63.559,0,0,0,8.2-4.4q3.376-2.2,6.27-4.525,0.965,1.812.964,8.275a38.438,38.438,0,0,1-1.607,10.344,39.56,39.56,0,0,0-.965,7.758q0,7.5,6.753,7.5h0.321q8.358-.261,16.4-13.189,2.246-4.14,4.5-9.31a27.711,27.711,0,0,0,1.607-9.568,41.645,41.645,0,0,0-5.144-19.395,45.155,45.155,0,0,0,10.932-19.4q3.21-11.377,3.537-33.1v-6.724q0-21.976-3.537-32.325-4.823-12.153-19.936-21.981a143.438,143.438,0,0,0-14.791-8.405,28.43,28.43,0,0,0-12.219-2.715h-0.643Z"/>
  </g>
  <g id="shape-codepen"> <path class="outer-ring" d="M50,0C22.385,0,0,22.385,0,50c0,27.615,22.385,50,50,50c27.614,0,50-22.385,50-50C100,22.385,77.615,0,50,0z M50,91.789
    C26.958,91.789,8.212,73.042,8.212,50C8.212,26.958,26.958,8.212,50,8.212c23.042,0,41.788,18.747,41.788,41.789
    C91.788,73.042,73.042,91.789,50,91.789z"></path> <path class="inner-logo" d="M80.893,40.234c-0.006-0.039-0.016-0.076-0.022-0.115c-0.013-0.075-0.027-0.15-0.046-0.223
    c-0.012-0.044-0.028-0.086-0.042-0.128c-0.021-0.065-0.042-0.13-0.068-0.193c-0.018-0.044-0.039-0.088-0.059-0.13
    c-0.028-0.06-0.057-0.119-0.09-0.175c-0.024-0.042-0.051-0.083-0.076-0.124c-0.036-0.055-0.073-0.109-0.112-0.161
    c-0.029-0.039-0.06-0.078-0.091-0.115c-0.042-0.049-0.086-0.098-0.132-0.143c-0.035-0.036-0.069-0.072-0.106-0.104
    c-0.049-0.044-0.099-0.086-0.15-0.127c-0.04-0.031-0.079-0.062-0.12-0.091c-0.016-0.01-0.029-0.023-0.044-0.033L51.474,19.531
    c-0.893-0.595-2.055-0.595-2.947,0L20.267,38.371c-0.015,0.01-0.028,0.023-0.044,0.033c-0.042,0.029-0.081,0.06-0.12,0.091
    c-0.052,0.041-0.102,0.083-0.15,0.127c-0.037,0.032-0.071,0.068-0.106,0.104c-0.046,0.045-0.09,0.094-0.132,0.143
    c-0.031,0.038-0.062,0.077-0.092,0.115c-0.039,0.052-0.076,0.106-0.111,0.161c-0.027,0.041-0.052,0.082-0.076,0.124
    c-0.033,0.057-0.062,0.115-0.09,0.175c-0.021,0.042-0.042,0.086-0.06,0.13c-0.026,0.063-0.047,0.128-0.068,0.193
    c-0.014,0.042-0.029,0.084-0.042,0.128c-0.02,0.073-0.032,0.148-0.046,0.223c-0.006,0.039-0.016,0.076-0.021,0.115
    c-0.016,0.114-0.024,0.229-0.024,0.346V59.42c0,0.117,0.009,0.233,0.024,0.348c0.005,0.038,0.015,0.077,0.021,0.114
    c0.014,0.075,0.027,0.149,0.046,0.223c0.012,0.043,0.028,0.086,0.042,0.128c0.021,0.065,0.042,0.13,0.068,0.195
    c0.018,0.044,0.039,0.086,0.06,0.129c0.028,0.06,0.058,0.118,0.09,0.177c0.024,0.041,0.049,0.082,0.076,0.122
    c0.035,0.056,0.072,0.109,0.111,0.161c0.029,0.041,0.061,0.078,0.092,0.115c0.042,0.049,0.086,0.098,0.132,0.144
    c0.035,0.036,0.069,0.071,0.106,0.104c0.048,0.044,0.099,0.086,0.15,0.127c0.039,0.031,0.078,0.062,0.12,0.091
    c0.016,0.01,0.029,0.023,0.044,0.032l28.259,18.84c0.446,0.297,0.96,0.447,1.474,0.447c0.513,0,1.027-0.149,1.473-0.447
    l28.259-18.84c0.015-0.009,0.028-0.022,0.044-0.032c0.042-0.029,0.081-0.06,0.12-0.091c0.051-0.041,0.102-0.083,0.15-0.127
    c0.037-0.033,0.071-0.068,0.106-0.104c0.046-0.046,0.09-0.095,0.132-0.144c0.031-0.037,0.062-0.075,0.091-0.115
    c0.04-0.052,0.076-0.105,0.112-0.161c0.025-0.041,0.051-0.081,0.076-0.122c0.033-0.059,0.062-0.117,0.09-0.177
    c0.02-0.042,0.041-0.085,0.059-0.129c0.026-0.065,0.047-0.13,0.068-0.195c0.014-0.042,0.03-0.085,0.042-0.128
    c0.02-0.074,0.033-0.148,0.046-0.223c0.006-0.037,0.016-0.076,0.022-0.114c0.014-0.115,0.023-0.231,0.023-0.348V40.581
    C80.916,40.464,80.907,40.348,80.893,40.234z M52.657,26.707l20.817,13.877l-9.298,6.221l-11.519-7.706V26.707z M47.343,26.707
    v12.393l-11.518,7.706l-9.299-6.221L47.343,26.707z M24.398,45.554L31.046,50l-6.648,4.446V45.554z M47.343,73.294L26.525,59.417
    l9.299-6.219l11.518,7.704V73.294z M50,56.286L40.603,50L50,43.715L59.397,50L50,56.286z M52.657,73.294V60.902l11.519-7.704
    l9.298,6.219L52.657,73.294z M75.602,54.447L68.955,50l6.647-4.446V54.447z"></path> </g>
   <path id="shape-twitter" d="M100.001,17.942c-3.681,1.688-7.633,2.826-11.783,3.339
  c4.236-2.624,7.49-6.779,9.021-11.73c-3.965,2.432-8.354,4.193-13.026,5.146C80.47,10.575,75.138,8,69.234,8
  c-11.33,0-20.518,9.494-20.518,21.205c0,1.662,0.183,3.281,0.533,4.833c-17.052-0.884-32.168-9.326-42.288-22.155
  c-1.767,3.133-2.778,6.773-2.778,10.659c0,7.357,3.622,13.849,9.127,17.65c-3.363-0.109-6.525-1.064-9.293-2.651
  c-0.002,0.089-0.002,0.178-0.002,0.268c0,10.272,7.072,18.845,16.458,20.793c-1.721,0.484-3.534,0.744-5.405,0.744
  c-1.322,0-2.606-0.134-3.859-0.379c2.609,8.424,10.187,14.555,19.166,14.726c-7.021,5.688-15.867,9.077-25.48,9.077
  c-1.656,0-3.289-0.102-4.895-0.297C9.08,88.491,19.865,92,31.449,92c37.737,0,58.374-32.312,58.374-60.336
  c0-0.92-0.02-1.834-0.059-2.743C93.771,25.929,97.251,22.195,100.001,17.942L100.001,17.942z"></path>  <g id="shape-youtube"> <path class="youtube" d="M98.77,27.492c-1.225-5.064-5.576-8.799-10.811-9.354C75.561,16.818,63.01,15.993,50.514,16
    c-12.495-0.007-25.045,0.816-37.446,2.139c-5.235,0.557-9.583,4.289-10.806,9.354C0.522,34.704,0.5,42.574,0.5,50.001
    c0,7.426,0,15.296,1.741,22.509c1.224,5.061,5.572,8.799,10.807,9.352c12.399,1.32,24.949,2.145,37.446,2.14
    c12.494,0.005,25.047-0.817,37.443-2.14c5.234-0.555,9.586-4.291,10.81-9.352c1.741-7.213,1.753-15.083,1.753-22.509
    S100.51,34.704,98.77,27.492 M67.549,52.203L43.977,64.391c-2.344,1.213-4.262,0.119-4.262-2.428V38.036
    c0-2.548,1.917-3.644,4.262-2.429l23.572,12.188C69.896,49.008,69.896,50.992,67.549,52.203"></path> </g> 
  </defs>
</svg>